PathFileType	4	(X/Y/Z)	Patient4_TMGait_0pt4_01_left_09.trc.trc
DataRate	CameraRate	NumFrames	NumMarkers	Units	OrigDataRate	OrigDataStartFrame	OrigNumFrames
74.074074074074	74.074074074074	4	33	mm	74.074074074074	53	       141
Frame#	Time	Sacral			L.Shoulder			Chest			R.Shoulder			Neck			R.ASIS			L.ASIS			R.Thigh.Superior			R.Thigh.Lateral			R.Thigh.Inferior			R.Patella			L.Thigh.Superior			L.Thigh.Lateral			L.Thigh.Inferior			L.Patella			L.Shank.Superior			L.Shank.Lateral			L.Shank.Inferior			R.Shank.Superior			R.Shank.Lateral			R.Shank.Inferior			R.Heel			R.Midfoot.Superior			R.Midfoot.Lateral			R.Toe			L.Heel			L.Midfoot.Lateral			L.Midfoot.Superior			L.Toe			L.Elbow			L.Wrist			R.Elbow			R.Wrist			
		X1	Y1	Z1	X2	Y2	Z2	X3	Y3	Z3	X4	Y4	Z4	X5	Y5	Z5	X6	Y6	Z6	X7	Y7	Z7	X8	Y8	Z8	X9	Y9	Z9	X10	Y10	Z10	X11	Y11	Z11	X12	Y12	Z12	X13	Y13	Z13	X14	Y14	Z14	X15	Y15	Z15	X16	Y16	Z16	X17	Y17	Z17	X18	Y18	Z18	X19	Y19	Z19	X20	Y20	Z20	X21	Y21	Z21	X22	Y22	Z22	X23	Y23	Z23	X24	Y24	Z24	X25	Y25	Z25	X26	Y26	Z26	X27	Y27	Z27	X28	Y28	Z28	X29	Y29	Z29	X30	Y30	Z30	X31	Y31	Z31	X32	Y32	Z32	X33	Y33	Z33	

53	11.332000000000	799.767377785098	1008.589841612913	451.315498567463	993.599279344590	1437.245028899344	271.891833814205	1083.014775205134	1371.169385103387	440.814753850251	987.368480347598	1445.299096844056	608.316794100968	965.879004612223	1500.751285168589	426.941373622949	1024.816465458754	951.195907247571	579.465639024002	1025.574796890987	967.520958493912	303.968136956820	1104.041851115497	773.421251501054	553.558747459077	1057.611447754830	654.317632038728	626.462876724710	1146.758870515644	610.221074670179	550.030911880814	1160.709000935307	499.212709080314	574.860562696108	1068.811202298538	750.885212919400	338.105530136021	978.809807871991	635.502727507625	279.897198116012	1058.341165913710	557.512698481221	348.180196316681	1055.748401079901	488.826766399107	360.192807664836	1028.203154980276	417.366131224714	351.685591293644	938.345385184752	303.693172149082	301.907324326297	984.173602532174	192.697966761050	375.959671223229	1084.567856579099	425.106800086026	583.910758864565	964.059656630541	387.189674837533	647.163101815236	948.726821661046	277.152170161395	600.904840938672	748.056568653478	219.684989842257	578.635904141614	915.632946305446	155.130954321252	616.423386382650	805.920480458961	156.580383500610	649.754488881344	975.963274644936	38.174841452295	638.423016295422	853.351420574646	38.630462418743	419.394547744247	926.555944613325	35.863414684967	338.175653845358	1010.641410903300	95.990204863077	364.544741565737	1138.868698633367	41.419746692823	334.606068625588	1008.607867114481	1092.994776735896	133.615736409672	1188.516299929752	902.984924687009	149.932651589730	919.661550863928	1104.027872684876	728.070424598386	968.339164407434	847.382226350908	741.069784637755	
54	11.345500000000	798.597905512236	1009.328646435566	449.498309529171	995.188481135109	1437.814303421756	271.339091622133	1082.406159576119	1371.635163652009	441.327473339307	984.837301891492	1445.914036040134	607.615154435955	965.609564456357	1501.324159702472	426.264752821976	1022.673085964189	952.256803355157	579.346361593001	1026.013092496104	968.164989556560	303.672449537506	1103.656635907745	776.280063342855	552.842507308086	1059.126477623946	656.681983349737	626.037373241496	1148.369812705325	613.575209783422	549.147730003072	1164.249161612782	503.081373442146	574.193939708730	1066.463043019025	750.204056759058	338.123046385979	975.406889721013	635.655919054351	279.424070547485	1053.777877578332	556.977396495413	348.019257688747	1050.473723829904	488.539940633686	360.013660101963	1023.049830162832	417.324822914054	351.357701598225	933.127408598956	303.708038520758	301.447778933188	978.724908083059	192.691157382748	375.664569258036	1089.783535508752	427.584307688695	583.479571181544	970.313740052100	386.375528799442	646.478143478999	958.332501455927	275.786341165992	600.430748307344	759.512673317385	211.501940670963	577.526148881992	929.084243194532	153.670694127795	616.840275252124	819.269894836041	151.290956473769	649.488255616967	993.214315653548	39.125579367143	639.934420679414	847.844088439703	38.650829514198	419.305016989939	921.093246570861	35.818946816616	338.084655066810	1005.171143414896	95.969514863156	364.403529196142	1133.427054001521	41.368350665710	334.584446599361	1014.468112024719	1094.540690360674	131.768410163317	1200.583598746401	910.756192869512	148.817769661027	907.615393074800	1106.261771806555	725.403411051281	947.728397990380	848.126895018065	737.324194888155	
55	11.359000000000	797.402896753794	1010.007778976363	447.815659002053	996.825232217399	1438.248818162968	270.910617296909	1081.804591955308	1371.999763691603	441.963040084262	982.340238076274	1446.512305561716	606.981541203054	965.342075148762	1501.807067267565	425.676290721229	1020.458584509865	953.186934911588	579.405929011225	1026.303866568359	968.647777865500	303.604267416605	1102.934587942954	778.780903834792	552.441079163380	1059.975946083332	658.745601479194	625.856174553325	1149.285101474396	616.494860099692	548.598490591430	1166.991376629141	506.761143892782	573.842133012389	1063.995121840397	749.512252324076	338.377541105356	971.964630998989	635.811261477946	278.998902617184	1049.121490887589	556.444450750801	347.905640618441	1045.098655829958	488.263869358188	359.833564766805	1017.825209906938	417.281515959194	351.043195303440	927.870075508153	303.703117125140	300.996965593042	973.254346861499	192.676893472485	375.385308800420	1094.609216692048	429.735369188556	583.286678309018	976.577032032186	384.501083784965	646.018809491058	968.641478344430	273.446729861567	600.103198567356	772.300856199969	201.183311502656	576.492389777644	943.964980825284	151.177714453591	617.328689525492	834.198761176805	144.314897003989	649.324153575485	1012.534482151398	39.774956191979	641.567427285555	842.339114403916	38.662137791945	419.224371418305	915.630164614471	35.770881623805	337.997662232881	999.698786382706	95.946749823338	364.272805198615	1127.987175003564	41.322884554727	334.568153472734	1020.174198144193	1095.974547897826	130.196623526297	1212.188011134311	918.498020377909	147.906083910250	895.931559665199	1108.700865319639	722.767049316609	928.236217280788	849.470262534817	733.362813493723	
56	11.372500000000	796.180695994366	1010.599767430906	446.262828827966	998.476059153177	1438.515555788953	270.605735391212	1081.207584668916	1372.239079979762	442.709807347409	979.896008661720	1447.065089973125	606.422257865409	965.083737741455	1502.176258488681	425.172196047617	1018.180289096075	953.951865419575	579.648333265343	1026.383704162815	968.924541224844	303.778829536878	1101.871144088141	780.856370066984	552.339511999763	1060.145698681969	660.448331937233	625.903617232187	1149.480639989788	618.904386464962	548.362641845618	1168.904827424445	510.185884646099	573.780596087642	1061.438817804214	748.803920666113	338.846628008815	968.514968407890	635.957974304345	278.617995450016	1044.413572616275	555.908037211946	347.831885399537	1039.669282547466	487.989750846572	359.656051910447	1012.564864595583	417.222456052854	350.747654076113	922.603610398011	303.671600419211	300.560048005286	967.778559023714	192.649121109590	375.134251629543	1099.017824282948	431.547863704374	583.320163572986	982.888650045865	381.659771690392	645.816259191558	979.618776407989	270.298795912217	599.951381465634	786.488861806069	189.136976755071	575.636871559494	960.164050684369	147.846360358959	617.874287213444	850.681631030730	135.984522140003	649.313389750362	1033.633913332735	40.229262978484	643.243140461771	836.840573654155	38.662011092318	419.152909495058	910.167871138267	35.719958518257	337.915498077519	994.226500868612	95.922514621701	364.157327755511	1122.550181991544	41.285545663816	334.556858865283	1025.754666182283	1097.261892981731	128.887043902516	1223.315993406159	926.106730218637	147.186568192020	884.709626746649	1111.273458993835	720.171479159249	909.931272001891	851.256271318549	729.272134779422	
